<svg width="32" height="32" viewBox="0 0 22 22" fill="none" xmlns="http://www.w3.org/2000/svg">
<path id="Vector" d="M19.6429 0H2.35714C1.0558 0 0 1.0558 0 2.35714V19.6429C0 20.9442 1.0558 22 2.35714 22H19.6429C20.9442 22 22 20.9442 22 19.6429V2.35714C22 1.0558 20.9442 0 19.6429 0ZM13.6174 18.8424C13.2049 18.9161 13.0527 18.6607 13.0527 18.4496C13.0527 18.1844 13.0625 16.829 13.0625 15.7339C13.0625 14.9679 12.8071 14.4817 12.5076 14.2263C14.3246 14.025 16.2397 13.7746 16.2397 10.6366C16.2397 9.74286 15.9205 9.29598 15.4 8.72143C15.4835 8.51027 15.7634 7.64107 15.3165 6.51161C14.6339 6.30045 13.0723 7.39062 13.0723 7.39062C12.4241 7.20893 11.7219 7.11562 11.0295 7.11562C10.3371 7.11562 9.63482 7.20893 8.98661 7.39062C8.98661 7.39062 7.425 6.30045 6.74241 6.51161C6.29554 7.63616 6.57054 8.50536 6.65893 8.72143C6.13839 9.29598 5.89286 9.74286 5.89286 10.6366C5.89286 13.7598 7.72455 14.025 9.54152 14.2263C9.3058 14.4375 9.09464 14.8009 9.02098 15.3214C8.55446 15.5326 7.36116 15.896 6.64911 14.6388C6.20223 13.8629 5.39687 13.7991 5.39687 13.7991C4.60134 13.7893 5.34286 14.3 5.34286 14.3C5.87321 14.5455 6.24643 15.4884 6.24643 15.4884C6.72277 16.9469 9.00134 16.4558 9.00134 16.4558C9.00134 17.1384 9.01116 18.2482 9.01116 18.4496C9.01116 18.6607 8.86384 18.9161 8.44643 18.8424C5.20536 17.7571 2.93661 14.6732 2.93661 11.0687C2.93661 6.56071 6.38393 3.13795 10.892 3.13795C15.4 3.13795 19.0536 6.56071 19.0536 11.0687C19.0585 14.6732 16.8585 17.7621 13.6174 18.8424ZM8.8 15.842C8.7067 15.8616 8.6183 15.8223 8.60848 15.7585C8.59866 15.6848 8.6625 15.621 8.7558 15.6013C8.84911 15.5915 8.9375 15.6308 8.94732 15.6946C8.96205 15.7585 8.89821 15.8223 8.8 15.842ZM8.33348 15.7978C8.33348 15.8616 8.25982 15.9156 8.16161 15.9156C8.05357 15.9254 7.97991 15.8714 7.97991 15.7978C7.97991 15.7339 8.05357 15.6799 8.15179 15.6799C8.24509 15.6701 8.33348 15.7241 8.33348 15.7978ZM7.66071 15.7437C7.64107 15.8076 7.54286 15.8371 7.45937 15.8076C7.36607 15.7879 7.30223 15.7143 7.32188 15.6504C7.34152 15.5866 7.43973 15.5571 7.52321 15.5768C7.62143 15.6063 7.68527 15.6799 7.66071 15.7437ZM7.0567 15.4786C7.0125 15.5326 6.9192 15.5228 6.84554 15.4491C6.77187 15.3853 6.75223 15.292 6.80134 15.2478C6.84554 15.1937 6.93884 15.2036 7.0125 15.2772C7.07634 15.3411 7.10089 15.4393 7.0567 15.4786ZM6.60982 15.0317C6.56563 15.0612 6.48214 15.0317 6.42812 14.958C6.37411 14.8844 6.37411 14.8009 6.42812 14.7665C6.48214 14.7223 6.56563 14.7567 6.60982 14.8304C6.66384 14.904 6.66384 14.9924 6.60982 15.0317ZM6.29063 14.5554C6.24643 14.5996 6.17277 14.575 6.11875 14.5259C6.06473 14.4621 6.05491 14.3884 6.09911 14.354C6.1433 14.3098 6.21696 14.3344 6.27098 14.3835C6.325 14.4473 6.33482 14.521 6.29063 14.5554ZM5.96161 14.192C5.94196 14.2362 5.87812 14.246 5.82411 14.2116C5.76027 14.1821 5.7308 14.1281 5.75045 14.0839C5.77009 14.0545 5.82411 14.0397 5.88795 14.0643C5.95179 14.0987 5.98125 14.1527 5.96161 14.192Z" fill="#2b2b2b"/>
</svg>
