<svg width="2264" height="540" viewBox="0 0 2264 540" fill="none" xmlns="http://www.w3.org/2000/svg">
<path d="M27.6098 502.752C12.3613 502.752 0 490.557 0 475.512V87.2377C0 72.665 11.9735 60.8516 26.7435 60.8516C36.7038 60.8516 45.8389 66.3127 50.4498 75.0239L193.268 344.862L336.087 75.0239C340.698 66.3127 349.833 60.8516 359.793 60.8516C374.563 60.8516 386.537 72.665 386.537 87.2377V232.669C386.537 247.715 374.175 260.283 358.927 260.283C343.678 260.283 331.317 247.715 331.317 232.669V194.027L221.376 395.945C215.881 406.038 205.207 412.335 193.595 412.335C181.94 412.335 171.235 405.993 165.758 395.843L55.2195 191.001V475.512C55.2195 490.557 42.8583 502.752 27.6098 502.752Z" fill="#1C1C1C"/>
<path d="M386.537 345.447C386.537 330.606 374.175 318.574 358.927 318.574C343.678 318.574 331.317 330.606 331.317 345.447V476.823C331.317 491.664 343.678 503.695 358.927 503.695C374.175 503.695 386.537 491.664 386.537 476.823V345.447Z" fill="#0A4EBD"/>
<path d="M521.554 241.638C515.713 241.638 511.247 240.006 508.154 236.741C505.062 233.477 503.516 228.924 503.516 223.082V73.8577C503.516 68.0159 505.148 63.4627 508.412 60.1981C511.848 56.9336 516.487 55.3013 522.328 55.3013C527.481 55.3013 531.518 56.3322 534.439 58.394C537.531 60.284 540.366 63.6345 542.943 68.4454L602.469 177.206H593.708L653.235 68.4454C655.811 63.6345 658.56 60.284 661.481 58.394C664.573 56.3322 668.61 55.3013 673.592 55.3013C679.433 55.3013 683.9 56.9336 686.992 60.1981C690.256 63.4627 691.888 68.0159 691.888 73.8577V223.082C691.888 228.924 690.342 233.477 687.25 236.741C684.157 240.006 679.691 241.638 673.85 241.638C668.009 241.638 663.456 240.006 660.192 236.741C657.1 233.477 655.554 228.924 655.554 223.082V118.702H661.223L613.292 204.525C611.231 207.79 608.998 210.281 606.592 211.999C604.359 213.546 601.353 214.319 597.573 214.319C593.794 214.319 590.702 213.46 588.296 211.742C585.891 210.024 583.744 207.618 581.854 204.525L533.408 118.445H539.593V223.082C539.593 228.924 538.047 233.477 534.954 236.741C532.034 240.006 527.567 241.638 521.554 241.638ZM755.274 241.38C748.918 241.38 744.022 239.576 740.586 235.968C737.322 232.188 735.69 226.948 735.69 220.247V132.104C735.69 125.231 737.322 119.991 740.586 116.383C744.022 112.603 748.918 110.713 755.274 110.713C761.459 110.713 766.183 112.603 769.447 116.383C772.883 119.991 774.601 125.231 774.601 132.104V220.247C774.601 226.948 772.969 232.188 769.705 235.968C766.441 239.576 761.63 241.38 755.274 241.38ZM755.274 89.579C748.059 89.579 742.475 87.9468 738.524 84.6822C734.745 81.2459 732.855 76.435 732.855 70.2495C732.855 63.8922 734.745 59.0813 738.524 55.8168C742.475 52.3804 748.059 50.6622 755.274 50.6622C762.489 50.6622 767.987 52.3804 771.766 55.8168C775.546 59.0813 777.435 63.8922 777.435 70.2495C777.435 76.435 775.546 81.2459 771.766 84.6822C767.987 87.9468 762.489 89.579 755.274 89.579ZM876.536 242.154C862.793 242.154 850.767 239.49 840.459 234.164C830.324 228.666 822.507 220.934 817.009 210.969C811.512 201.003 808.763 189.234 808.763 175.66C808.763 165.523 810.31 156.416 813.402 148.341C816.494 140.265 820.961 133.393 826.802 127.723C832.815 122.053 840.03 117.757 848.448 114.836C856.866 111.744 866.229 110.197 876.536 110.197C881.862 110.197 887.531 110.885 893.544 112.259C899.556 113.462 905.483 115.61 911.324 118.702C914.76 120.249 917.08 122.482 918.282 125.403C919.656 128.152 920.172 131.073 919.828 134.166C919.485 137.087 918.368 139.75 916.478 142.155C914.76 144.389 912.527 145.935 909.778 146.795C907.03 147.482 903.937 146.966 900.501 145.248C897.237 143.358 893.801 141.984 890.194 141.124C886.758 140.265 883.494 139.836 880.401 139.836C875.248 139.836 870.695 140.695 866.744 142.413C862.793 143.96 859.443 146.279 856.694 149.372C854.117 152.293 852.055 155.987 850.509 160.454C849.135 164.921 848.448 170.076 848.448 175.918C848.448 187.258 851.196 196.192 856.694 202.721C862.363 209.079 870.266 212.257 880.401 212.257C883.494 212.257 886.758 211.914 890.194 211.226C893.63 210.367 897.065 208.993 900.501 207.103C903.937 205.384 907.03 204.955 909.778 205.814C912.527 206.673 914.674 208.305 916.221 210.711C917.938 212.944 918.883 215.608 919.055 218.7C919.399 221.621 918.883 224.542 917.509 227.463C916.306 230.212 914.073 232.36 910.809 233.906C904.968 236.827 899.127 238.889 893.286 240.092C887.445 241.466 881.862 242.154 876.536 242.154ZM967.9 241.638C961.543 241.638 956.647 239.92 953.211 236.484C949.947 233.047 948.315 228.15 948.315 221.793V75.1463C948.315 68.6172 949.947 63.7204 953.211 60.4559C956.647 57.0195 961.543 55.3013 967.9 55.3013C974.084 55.3013 978.809 57.0195 982.073 60.4559C985.509 63.7204 987.227 68.6172 987.227 75.1463V136.485H983.619C987.57 128.066 993.411 121.623 1001.14 117.156C1009.04 112.517 1017.98 110.197 1027.94 110.197C1038.08 110.197 1046.41 112.173 1052.94 116.125C1059.47 119.905 1064.36 125.747 1067.63 133.65C1070.89 141.382 1072.52 151.262 1072.52 163.289V221.793C1072.52 228.15 1070.8 233.047 1067.37 236.484C1064.1 239.92 1059.29 241.638 1052.94 241.638C1046.75 241.638 1041.94 239.92 1038.51 236.484C1035.24 233.047 1033.61 228.15 1033.61 221.793V165.093C1033.61 156.33 1031.98 150.059 1028.71 146.279C1025.62 142.327 1020.81 140.351 1014.28 140.351C1006.04 140.351 999.424 142.929 994.442 148.083C989.632 153.238 987.227 160.11 987.227 168.701V221.793C987.227 235.023 980.784 241.638 967.9 241.638ZM1154.65 242.154C1145.38 242.154 1137.04 240.349 1129.66 236.741C1122.27 233.133 1116.51 228.236 1112.39 222.051C1108.27 215.865 1106.21 208.907 1106.21 201.175C1106.21 191.897 1108.61 184.595 1113.42 179.268C1118.23 173.77 1126.05 169.904 1136.87 167.67C1147.69 165.265 1162.04 164.062 1179.91 164.062H1193.56V184.165H1180.16C1171.4 184.165 1164.27 184.68 1158.78 185.711C1153.45 186.57 1149.58 188.117 1147.18 190.35C1144.95 192.584 1143.83 195.677 1143.83 199.629C1143.83 204.44 1145.46 208.391 1148.73 211.484C1152.16 214.577 1157.06 216.123 1163.41 216.123C1168.4 216.123 1172.78 215.006 1176.56 212.773C1180.51 210.367 1183.6 207.189 1185.83 203.237C1188.07 199.113 1189.18 194.474 1189.18 189.319V159.681C1189.18 152.121 1187.46 146.794 1184.03 143.702C1180.59 140.437 1174.75 138.805 1166.51 138.805C1161.87 138.805 1156.8 139.406 1151.3 140.609C1145.98 141.64 1140.05 143.444 1133.52 146.021C1129.74 147.739 1126.39 148.169 1123.47 147.31C1120.55 146.279 1118.32 144.561 1116.77 142.155C1115.23 139.578 1114.45 136.829 1114.45 133.908C1114.45 130.815 1115.31 127.894 1117.03 125.145C1118.75 122.224 1121.58 120.077 1125.53 118.702C1133.61 115.438 1141.17 113.204 1148.21 112.001C1155.43 110.799 1162.04 110.197 1168.05 110.197C1181.28 110.197 1192.1 112.173 1200.52 116.125C1209.11 119.905 1215.55 125.833 1219.85 133.908C1224.14 141.812 1226.29 152.035 1226.29 164.578V221.793C1226.29 228.15 1224.74 233.047 1221.65 236.484C1218.56 239.92 1214.09 241.638 1208.25 241.638C1202.41 241.638 1197.86 239.92 1194.59 236.484C1191.5 233.047 1189.96 228.15 1189.96 221.793V212.257L1191.76 213.804C1190.73 219.645 1188.5 224.714 1185.06 229.009C1181.8 233.133 1177.59 236.398 1172.43 238.803C1167.28 241.037 1161.35 242.154 1154.65 242.154ZM1311.24 242.154C1295.95 242.154 1284.52 237.944 1276.96 229.525C1269.4 220.934 1265.63 208.219 1265.63 191.381V75.1463C1265.63 68.6172 1267.26 63.7204 1270.52 60.4559C1273.96 57.0195 1278.85 55.3013 1285.21 55.3013C1291.39 55.3013 1296.12 57.0195 1299.38 60.4559C1302.82 63.7204 1304.54 68.6172 1304.54 75.1463V189.835C1304.54 196.88 1306 202.12 1308.92 205.556C1312.01 208.821 1316.05 210.453 1321.03 210.453C1322.4 210.453 1323.69 210.367 1324.89 210.195C1326.1 210.024 1327.38 209.938 1328.76 209.938C1331.51 209.594 1333.4 210.453 1334.43 212.515C1335.63 214.405 1336.23 218.271 1336.23 224.113C1336.23 229.267 1335.2 233.219 1333.14 235.968C1331.08 238.545 1327.9 240.264 1323.61 241.123C1321.89 241.294 1319.91 241.466 1317.68 241.638C1315.45 241.982 1313.3 242.154 1311.24 242.154ZM1493.07 242.019C1486.2 242.019 1479.17 241.446 1471.97 240.3C1464.93 239.319 1458.14 237.846 1451.6 235.882C1445.22 233.919 1439.49 231.464 1434.42 228.519C1430.82 226.555 1428.28 224.019 1426.81 220.909C1425.34 217.637 1424.76 214.364 1425.09 211.091C1425.58 207.819 1426.81 204.955 1428.77 202.5C1430.9 199.882 1433.52 198.246 1436.63 197.591C1439.9 196.773 1443.5 197.346 1447.43 199.309C1454.13 203.073 1461.42 205.855 1469.27 207.655C1477.28 209.455 1485.22 210.355 1493.07 210.355C1505.01 210.355 1513.52 208.555 1518.6 204.955C1523.67 201.192 1526.21 196.528 1526.21 190.964C1526.21 186.219 1524.4 182.455 1520.81 179.673C1517.21 176.892 1510.9 174.519 1501.91 172.555L1474.18 166.664C1458.47 163.392 1446.77 157.828 1439.08 149.973C1431.55 141.955 1427.79 131.482 1427.79 118.555C1427.79 110.373 1429.51 102.927 1432.95 96.2186C1436.38 89.5097 1441.2 83.7004 1447.43 78.7913C1453.64 73.8822 1461 70.1188 1469.51 67.5004C1478.18 64.882 1487.67 63.5731 1497.98 63.5731C1507.14 63.5731 1516.14 64.7188 1524.98 67.0095C1533.81 69.137 1541.58 72.3279 1548.29 76.5822C1551.56 78.5459 1553.77 81.082 1554.92 84.1913C1556.23 87.1368 1556.64 90.1638 1556.15 93.2731C1555.82 96.2186 1554.59 98.837 1552.47 101.128C1550.5 103.418 1547.96 104.891 1544.86 105.546C1541.75 106.201 1537.99 105.464 1533.57 103.337C1528.17 100.555 1522.44 98.5093 1516.39 97.2004C1510.33 95.8915 1504.12 95.2368 1497.74 95.2368C1490.87 95.2368 1484.98 96.137 1480.07 97.9368C1475.32 99.7366 1471.64 102.273 1469.02 105.546C1466.57 108.818 1465.34 112.582 1465.34 116.837C1465.34 121.582 1467.06 125.428 1470.5 128.373C1473.93 131.319 1479.9 133.692 1488.41 135.491L1516.14 141.382C1532.18 144.819 1544.12 150.382 1551.98 158.073C1559.83 165.601 1563.76 175.582 1563.76 188.019C1563.76 196.2 1562.12 203.646 1558.85 210.355C1555.57 216.901 1550.83 222.546 1544.61 227.291C1538.39 232.037 1530.95 235.718 1522.28 238.337C1513.6 240.791 1503.87 242.019 1493.07 242.019ZM1495.04 54.9822C1490.78 54.9822 1486.85 54.0822 1483.26 52.2822C1479.82 50.3186 1476.71 47.3731 1473.93 43.4459L1458.22 21.6004C1456.26 18.9822 1455.6 16.4459 1456.26 13.9913C1457.08 11.5368 1458.63 9.57314 1460.92 8.10041C1463.21 6.62768 1465.75 6.05495 1468.53 6.38223C1471.31 6.54582 1473.85 7.93675 1476.14 10.555L1495.04 32.155L1514.18 10.555C1516.47 7.93675 1519 6.54582 1521.79 6.38223C1524.57 6.05495 1527.02 6.62768 1529.15 8.10041C1531.44 9.57314 1532.91 11.5368 1533.57 13.9913C1534.38 16.2822 1533.81 18.8186 1531.85 21.6004L1516.39 43.4459C1513.6 47.3731 1510.41 50.3186 1506.82 52.2822C1503.38 54.0822 1499.46 54.9822 1495.04 54.9822ZM1613.73 241.528C1607.67 241.528 1603.01 239.891 1599.74 236.619C1596.63 233.346 1595.08 228.682 1595.08 222.628V82.9641C1595.08 76.7461 1596.63 72.0824 1599.74 68.9731C1603.01 65.7006 1607.67 64.064 1613.73 64.064C1619.62 64.064 1624.12 65.7006 1627.23 68.9731C1630.5 72.0824 1632.14 76.7461 1632.14 82.9641V168.628H1632.63L1668.21 129.11C1671.81 125.018 1675.08 121.991 1678.03 120.028C1681.13 117.9 1685.23 116.837 1690.3 116.837C1695.37 116.837 1699.21 118.146 1701.83 120.764C1704.61 123.382 1706.01 126.573 1706.01 130.337C1706.17 133.937 1704.61 137.619 1701.34 141.382L1663.79 183.355V169.364L1705.52 217.473C1708.62 221.237 1709.93 225.001 1709.44 228.764C1709.11 232.527 1707.48 235.637 1704.53 238.091C1701.59 240.382 1697.82 241.528 1693.24 241.528C1687.68 241.528 1683.18 240.464 1679.75 238.337C1676.47 236.209 1673.12 232.937 1669.68 228.519L1632.63 187.282H1632.14V222.628C1632.14 235.227 1626 241.528 1613.73 241.528ZM1797.74 242.019C1784.82 242.019 1773.53 239.482 1763.88 234.409C1754.39 229.337 1747.02 222.055 1741.79 212.564C1736.56 203.073 1733.94 191.864 1733.94 178.937C1733.94 169.282 1735.41 160.609 1738.35 152.919C1741.3 145.228 1745.55 138.682 1751.12 133.282C1756.84 127.718 1763.63 123.546 1771.48 120.764C1779.34 117.819 1788.09 116.346 1797.74 116.346C1810.67 116.346 1821.88 118.882 1831.37 123.955C1841.02 129.028 1848.47 136.228 1853.7 145.555C1859.1 154.882 1861.8 166.009 1861.8 178.937C1861.8 188.755 1860.25 197.51 1857.14 205.2C1854.19 212.891 1849.94 219.518 1844.37 225.082C1838.81 230.646 1832.02 234.9 1824 237.846C1816.15 240.627 1807.4 242.019 1797.74 242.019ZM1797.74 214.282C1803.14 214.282 1807.81 212.973 1811.73 210.355C1815.66 207.737 1818.77 203.892 1821.06 198.819C1823.35 193.582 1824.5 186.955 1824.5 178.937C1824.5 166.991 1822.04 158.237 1817.13 152.673C1812.22 146.946 1805.76 144.082 1797.74 144.082C1792.51 144.082 1787.85 145.31 1783.76 147.764C1779.83 150.219 1776.72 154.064 1774.43 159.3C1772.3 164.373 1771.24 170.918 1771.24 178.937C1771.24 190.882 1773.69 199.8 1778.6 205.691C1783.51 211.418 1789.89 214.282 1797.74 214.282ZM1938.59 242.019C1928.44 242.019 1920.01 240.137 1913.31 236.373C1906.59 232.61 1901.61 226.964 1898.34 219.437C1895.23 211.746 1893.67 202.255 1893.67 190.964V135.491C1893.67 129.273 1895.23 124.61 1898.34 121.5C1901.61 118.391 1906.19 116.837 1912.08 116.837C1917.97 116.837 1922.55 118.391 1925.82 121.5C1929.09 124.61 1930.73 129.273 1930.73 135.491V191.946C1930.73 199.146 1932.2 204.546 1935.15 208.146C1938.09 211.582 1942.76 213.3 1949.14 213.3C1956.17 213.3 1961.9 210.846 1966.32 205.937C1970.89 200.864 1973.19 194.237 1973.19 186.055V135.491C1973.19 129.273 1974.74 124.61 1977.85 121.5C1981.12 118.391 1985.71 116.837 1991.6 116.837C1997.65 116.837 2002.23 118.391 2005.34 121.5C2008.61 124.61 2010.25 129.273 2010.25 135.491V222.628C2010.25 235.227 2004.27 241.528 1992.33 241.528C1986.44 241.528 1981.94 239.891 1978.83 236.619C1975.72 233.346 1974.17 228.682 1974.17 222.628V206.182L1977.85 215.755C1974.25 224.1 1969.1 230.564 1962.39 235.146C1955.68 239.728 1947.75 242.019 1938.59 242.019ZM2092.18 242.019C2077.62 242.019 2066.74 238.01 2059.53 229.991C2052.34 221.81 2048.74 209.7 2048.74 193.664V82.9641C2048.74 76.7461 2050.29 72.0824 2053.4 68.9731C2056.68 65.7006 2061.34 64.064 2067.39 64.064C2073.28 64.064 2077.78 65.7006 2080.89 68.9731C2084.16 72.0824 2085.79 76.7461 2085.79 82.9641V192.191C2085.79 198.9 2087.19 203.892 2089.97 207.164C2092.91 210.273 2096.76 211.828 2101.5 211.828C2102.81 211.828 2104.04 211.746 2105.18 211.582C2106.33 211.418 2107.56 211.337 2108.86 211.337C2111.48 211.01 2113.28 211.828 2114.26 213.791C2115.41 215.591 2115.98 219.273 2115.98 224.837C2115.98 229.746 2115 233.509 2113.04 236.128C2111.07 238.582 2108.05 240.219 2103.96 241.037C2102.32 241.201 2100.44 241.364 2098.31 241.528C2096.19 241.855 2094.14 242.019 2092.18 242.019ZM2181.02 242.019C2172.19 242.019 2164.25 240.3 2157.22 236.864C2150.18 233.428 2144.7 228.764 2140.77 222.873C2136.85 216.982 2134.88 210.355 2134.88 202.991C2134.88 194.155 2137.17 187.201 2141.76 182.128C2146.33 176.892 2153.78 173.21 2164.09 171.082C2174.4 168.792 2188.05 167.646 2205.07 167.646H2218.08V186.791H2205.32C2196.98 186.791 2190.18 187.282 2184.95 188.264C2179.88 189.082 2176.19 190.555 2173.91 192.682C2171.78 194.81 2170.72 197.755 2170.72 201.519C2170.72 206.101 2172.27 209.864 2175.38 212.809C2178.65 215.755 2183.31 217.228 2189.37 217.228C2194.11 217.228 2198.28 216.164 2201.88 214.037C2205.65 211.746 2208.59 208.718 2210.72 204.955C2212.84 201.028 2213.91 196.609 2213.91 191.7V163.473C2213.91 156.273 2212.27 151.2 2209 148.255C2205.73 145.146 2200.17 143.591 2192.31 143.591C2187.9 143.591 2183.07 144.164 2177.83 145.31C2172.76 146.291 2167.11 148.01 2160.9 150.464C2157.3 152.101 2154.11 152.509 2151.33 151.691C2148.54 150.709 2146.42 149.073 2144.95 146.782C2143.47 144.328 2142.74 141.709 2142.74 138.928C2142.74 135.982 2143.55 133.201 2145.19 130.582C2146.82 127.801 2149.52 125.755 2153.29 124.446C2160.98 121.337 2168.18 119.21 2174.89 118.064C2181.76 116.918 2188.05 116.346 2193.79 116.346C2206.38 116.346 2216.69 118.228 2224.71 121.991C2232.89 125.592 2239.02 131.237 2243.11 138.928C2247.2 146.455 2249.25 156.191 2249.25 168.137V222.628C2249.25 228.682 2247.78 233.346 2244.83 236.619C2241.89 239.891 2237.63 241.528 2232.07 241.528C2226.51 241.528 2222.17 239.891 2219.06 236.619C2216.12 233.346 2214.65 228.682 2214.65 222.628V213.546L2216.36 215.019C2215.38 220.582 2213.25 225.409 2209.98 229.5C2206.87 233.428 2202.87 236.537 2197.96 238.828C2193.05 240.955 2187.4 242.019 2181.02 242.019Z" fill="#1C1C1C"/>
<path d="M567.939 499.882C560.723 499.882 553.336 499.281 545.777 498.078C538.39 497.047 531.261 495.501 524.389 493.439C517.689 491.377 511.676 488.8 506.351 485.707C502.571 483.645 499.908 480.982 498.362 477.717C496.816 474.281 496.215 470.845 496.558 467.408C497.074 463.972 498.362 460.965 500.424 458.388C502.657 455.639 505.406 453.921 508.67 453.233C512.106 452.374 515.885 452.976 520.008 455.037C527.052 458.989 534.697 461.91 542.943 463.8C551.361 465.69 559.693 466.635 567.939 466.635C580.48 466.635 589.413 464.745 594.739 460.965C600.064 457.013 602.727 452.117 602.727 446.275C602.727 441.292 600.837 437.34 597.058 434.419C593.278 431.498 586.664 429.007 577.216 426.945L548.097 420.76C531.604 417.323 519.321 411.482 511.247 403.234C503.344 394.815 499.393 383.819 499.393 370.245C499.393 361.654 501.197 353.837 504.805 346.792C508.412 339.747 513.48 333.648 520.008 328.493C526.536 323.339 534.267 319.387 543.2 316.638C552.306 313.889 562.27 312.514 573.093 312.514C582.713 312.514 592.162 313.717 601.439 316.122C610.716 318.356 618.876 321.707 625.919 326.174C629.355 328.236 631.674 330.899 632.877 334.163C634.251 337.256 634.681 340.435 634.165 343.699C633.822 346.792 632.533 349.541 630.3 351.947C628.239 354.352 625.576 355.898 622.312 356.586C619.048 357.273 615.096 356.5 610.458 354.266C604.789 351.345 598.776 349.197 592.419 347.823C586.063 346.448 579.535 345.761 572.835 345.761C565.62 345.761 559.435 346.706 554.281 348.596C549.299 350.486 545.434 353.149 542.685 356.586C540.108 360.022 538.82 363.974 538.82 368.441C538.82 373.424 540.624 377.462 544.231 380.554C547.839 383.647 554.109 386.138 563.043 388.028L592.162 394.214C608.998 397.822 621.539 403.664 629.785 411.739C638.031 419.643 642.154 430.124 642.154 443.182C642.154 451.773 640.436 459.591 637 466.635C633.564 473.508 628.582 479.436 622.054 484.418C615.526 489.401 607.709 493.267 598.604 496.016C589.499 498.593 579.277 499.882 567.939 499.882ZM735.855 499.882C722.283 499.882 710.43 497.219 700.294 491.892C690.33 486.566 682.599 478.92 677.102 468.955C671.604 458.989 668.856 447.22 668.856 433.646C668.856 423.509 670.402 414.402 673.494 406.327C676.586 398.252 681.053 391.379 686.894 385.709C692.907 379.867 700.036 375.486 708.282 372.565C716.528 369.472 725.719 367.926 735.855 367.926C749.427 367.926 761.195 370.589 771.159 375.915C781.295 381.242 789.111 388.802 794.609 398.595C800.278 408.389 803.113 420.072 803.113 433.646C803.113 443.955 801.481 453.147 798.217 461.223C795.124 469.298 790.658 476.257 784.817 482.099C778.976 487.941 771.846 492.408 763.428 495.501C755.182 498.422 745.991 499.882 735.855 499.882ZM735.855 470.759C741.524 470.759 746.421 469.384 750.544 466.635C754.667 463.886 757.931 459.848 760.336 454.522C762.741 449.024 763.944 442.065 763.944 433.646C763.944 421.103 761.367 411.911 756.213 406.069C751.059 400.056 744.273 397.049 735.855 397.049C730.358 397.049 725.462 398.337 721.167 400.915C717.044 403.492 713.78 407.53 711.375 413.028C709.141 418.354 708.025 425.227 708.025 433.646C708.025 446.189 710.601 455.553 715.755 461.738C720.909 467.752 727.609 470.759 735.855 470.759ZM882.708 499.882C867.419 499.882 855.995 495.672 848.436 487.253C840.877 478.662 837.097 465.948 837.097 449.11V332.875C837.097 326.346 838.729 321.449 841.993 318.184C845.429 314.748 850.325 313.03 856.682 313.03C862.866 313.03 867.591 314.748 870.855 318.184C874.291 321.449 876.008 326.346 876.008 332.875V447.563C876.008 454.608 877.469 459.848 880.389 463.285C883.482 466.549 887.519 468.182 892.501 468.182C893.875 468.182 895.164 468.096 896.366 467.924C897.569 467.752 898.857 467.666 900.231 467.666C902.98 467.322 904.87 468.182 905.901 470.243C907.103 472.133 907.704 475.999 907.704 481.841C907.704 486.996 906.674 490.947 904.612 493.697C902.551 496.274 899.372 497.992 895.078 498.851C893.36 499.023 891.384 499.195 889.151 499.367C886.917 499.71 884.77 499.882 882.708 499.882ZM979.858 499.882C969.207 499.882 960.359 497.906 953.316 493.954C946.272 490.002 941.033 484.075 937.597 476.171C934.333 468.096 932.701 458.13 932.701 446.275V388.028C932.701 381.499 934.333 376.602 937.597 373.338C941.033 370.073 945.843 368.441 952.027 368.441C958.212 368.441 963.022 370.073 966.458 373.338C969.894 376.602 971.612 381.499 971.612 388.028V447.306C971.612 454.866 973.158 460.536 976.25 464.316C979.343 467.924 984.239 469.728 990.939 469.728C998.326 469.728 1004.34 467.151 1008.98 461.996C1013.79 456.67 1016.19 449.711 1016.19 441.12V388.028C1016.19 381.499 1017.82 376.602 1021.09 373.338C1024.52 370.073 1029.33 368.441 1035.52 368.441C1041.88 368.441 1046.69 370.073 1049.95 373.338C1053.39 376.602 1055.1 381.499 1055.1 388.028V479.522C1055.1 492.752 1048.83 499.367 1036.29 499.367C1030.11 499.367 1025.38 497.648 1022.12 494.212C1018.86 490.776 1017.22 485.879 1017.22 479.522V462.254L1021.09 472.305C1017.31 481.068 1011.9 487.855 1004.85 492.666C997.81 497.477 989.478 499.882 979.858 499.882ZM1157.62 499.882C1145.77 499.882 1135.8 497.906 1127.73 493.954C1119.83 490.002 1113.9 484.247 1109.95 476.687C1106.17 469.127 1104.28 459.591 1104.28 448.079V399.626H1093.46C1088.65 399.626 1084.87 398.337 1082.12 395.76C1079.54 393.183 1078.25 389.661 1078.25 385.193C1078.25 380.382 1079.54 376.774 1082.12 374.369C1084.87 371.792 1088.65 370.503 1093.46 370.503H1104.28V350.916C1104.28 344.387 1106 339.49 1109.43 336.225C1112.87 332.789 1117.68 331.071 1123.86 331.071C1130.22 331.071 1135.03 332.789 1138.3 336.225C1141.56 339.49 1143.19 344.387 1143.19 350.916V370.503H1167.67C1172.48 370.503 1176.18 371.792 1178.75 374.369C1181.33 376.774 1182.62 380.382 1182.62 385.193C1182.62 389.661 1181.33 393.183 1178.75 395.76C1176.18 398.337 1172.48 399.626 1167.67 399.626H1143.19V446.532C1143.19 453.749 1144.82 459.161 1148.09 462.769C1151.52 466.377 1156.93 468.182 1164.32 468.182C1166.9 468.182 1169.3 467.924 1171.54 467.408C1173.77 466.893 1175.83 466.549 1177.72 466.377C1180.13 466.206 1182.1 466.979 1183.65 468.697C1185.19 470.243 1185.97 473.766 1185.97 479.264C1185.97 483.387 1185.28 486.996 1183.91 490.088C1182.53 493.181 1180.13 495.415 1176.69 496.789C1174.46 497.648 1171.37 498.336 1167.41 498.851C1163.63 499.538 1160.37 499.882 1157.62 499.882ZM1233.62 499.109C1227.27 499.109 1222.37 497.305 1218.93 493.697C1215.67 489.917 1214.04 484.676 1214.04 477.975V389.832C1214.04 382.96 1215.67 377.719 1218.93 374.111C1222.37 370.331 1227.27 368.441 1233.62 368.441C1239.81 368.441 1244.53 370.331 1247.8 374.111C1251.23 377.719 1252.95 382.96 1252.95 389.832V477.975C1252.95 484.676 1251.32 489.917 1248.05 493.697C1244.79 497.305 1239.98 499.109 1233.62 499.109ZM1233.62 347.307C1226.41 347.307 1220.82 345.675 1216.87 342.411C1213.09 338.974 1211.2 334.163 1211.2 327.978C1211.2 321.621 1213.09 316.81 1216.87 313.545C1220.82 310.109 1226.41 308.391 1233.62 308.391C1240.84 308.391 1246.34 310.109 1250.11 313.545C1253.89 316.81 1255.78 321.621 1255.78 327.978C1255.78 334.163 1253.89 338.974 1250.11 342.411C1246.34 345.675 1240.84 347.307 1233.62 347.307ZM1354.11 499.882C1340.54 499.882 1328.69 497.219 1318.55 491.892C1308.59 486.566 1300.86 478.92 1295.36 468.955C1289.86 458.989 1287.11 447.22 1287.11 433.646C1287.11 423.509 1288.66 414.402 1291.75 406.327C1294.84 398.252 1299.31 391.379 1305.15 385.709C1311.16 379.867 1318.29 375.486 1326.54 372.565C1334.78 369.472 1343.98 367.926 1354.11 367.926C1367.68 367.926 1379.45 370.589 1389.41 375.915C1399.55 381.242 1407.37 388.802 1412.86 398.595C1418.53 408.389 1421.37 420.072 1421.37 433.646C1421.37 443.955 1419.74 453.147 1416.47 461.223C1413.38 469.298 1408.91 476.257 1403.07 482.099C1397.23 487.941 1390.1 492.408 1381.68 495.501C1373.44 498.422 1364.25 499.882 1354.11 499.882ZM1354.11 470.759C1359.78 470.759 1364.68 469.384 1368.8 466.635C1372.92 463.886 1376.19 459.848 1378.59 454.522C1381 449.024 1382.2 442.065 1382.2 433.646C1382.2 421.103 1379.62 411.911 1374.47 406.069C1369.32 400.056 1362.53 397.049 1354.11 397.049C1348.61 397.049 1343.72 398.337 1339.42 400.915C1335.3 403.492 1332.04 407.53 1329.63 413.028C1327.4 418.354 1326.28 425.227 1326.28 433.646C1326.28 446.189 1328.86 455.553 1334.01 461.738C1339.17 467.752 1345.87 470.759 1354.11 470.759ZM1474.94 499.367C1468.58 499.367 1463.69 497.648 1460.25 494.212C1456.99 490.776 1455.35 485.879 1455.35 479.522V388.028C1455.35 381.671 1456.99 376.86 1460.25 373.596C1463.69 370.159 1468.41 368.441 1474.42 368.441C1480.61 368.441 1485.33 370.159 1488.6 373.596C1491.86 376.86 1493.49 381.671 1493.49 388.028V402.719L1490.66 394.214C1494.61 385.795 1500.45 379.352 1508.18 374.884C1516.08 370.245 1525.02 367.926 1534.98 367.926C1545.12 367.926 1553.45 369.902 1559.98 373.853C1566.5 377.633 1571.4 383.475 1574.66 391.379C1577.93 399.111 1579.56 408.99 1579.56 421.017V479.522C1579.56 485.879 1577.84 490.776 1574.41 494.212C1571.14 497.648 1566.33 499.367 1559.98 499.367C1553.79 499.367 1548.98 497.648 1545.54 494.212C1542.28 490.776 1540.65 485.879 1540.65 479.522V422.822C1540.65 414.059 1539.02 407.787 1535.75 404.007C1532.66 400.056 1527.85 398.08 1521.32 398.08C1513.08 398.08 1506.46 400.657 1501.48 405.812C1496.67 410.966 1494.26 417.839 1494.26 426.43V479.522C1494.26 492.752 1487.82 499.367 1474.94 499.367ZM1667.36 499.882C1659.8 499.882 1651.98 499.195 1643.91 497.82C1636.01 496.446 1628.79 494.126 1622.26 490.862C1618.83 489.143 1616.34 486.996 1614.79 484.418C1613.42 481.669 1612.81 478.92 1612.99 476.171C1613.16 473.422 1614.02 470.931 1615.56 468.697C1617.28 466.463 1619.43 465.003 1622.01 464.316C1624.75 463.457 1627.76 463.714 1631.02 465.089C1638.07 468.01 1644.51 470.072 1650.35 471.274C1656.19 472.477 1661.95 473.078 1667.62 473.078C1675 473.078 1680.33 471.962 1683.59 469.728C1687.03 467.322 1688.75 464.23 1688.75 460.45C1688.75 457.013 1687.63 454.436 1685.4 452.718C1683.16 451 1679.9 449.797 1675.61 449.11L1648.55 444.213C1637.9 442.323 1629.65 438.457 1623.81 432.615C1618.14 426.602 1615.31 418.956 1615.31 409.677C1615.31 401.087 1617.71 393.698 1622.52 387.513C1627.33 381.156 1633.95 376.345 1642.36 373.08C1650.95 369.644 1660.66 367.926 1671.48 367.926C1679.21 367.926 1686.34 368.613 1692.87 369.987C1699.4 371.362 1705.67 373.596 1711.68 376.688C1714.77 378.235 1716.92 380.297 1718.12 382.874C1719.5 385.451 1719.93 388.114 1719.41 390.863C1719.07 393.612 1718.04 396.104 1716.32 398.337C1714.6 400.571 1712.37 402.032 1709.62 402.719C1707.04 403.406 1704.04 403.062 1700.6 401.688C1695.1 399.111 1690.04 397.307 1685.4 396.276C1680.76 395.073 1676.29 394.472 1672 394.472C1664.27 394.472 1658.68 395.76 1655.25 398.337C1651.81 400.743 1650.09 403.836 1650.09 407.616C1650.09 410.537 1651.04 413.028 1652.93 415.09C1654.99 416.98 1658.08 418.268 1662.21 418.956L1689.26 423.852C1700.43 425.742 1708.93 429.522 1714.77 435.192C1720.62 440.691 1723.54 448.251 1723.54 457.872C1723.54 470.931 1718.38 481.24 1708.07 488.8C1697.94 496.188 1684.37 499.882 1667.36 499.882Z" fill="#0A4EBD"/>
</svg>
