<svg width="130" height="130" viewBox="0 0 130 130" fill="none" xmlns="http://www.w3.org/2000/svg">
<g clip-path="url(#clip0_121_232)">
<path d="M27.553 114.752C24.1109 114.752 21.3205 111.999 21.3205 108.603V20.9562C21.3205 17.6667 24.0234 15 27.3574 15C29.6058 15 31.6679 16.2328 32.7088 18.1992L64.9476 79.1108L97.1867 18.1992C98.2275 16.2328 100.29 15 102.538 15C105.872 15 108.575 17.6667 108.575 20.9562V53.7851C108.575 57.1813 105.784 60.0185 102.342 60.0185C98.9002 60.0185 96.1099 57.1813 96.1099 53.7851V45.0621L71.2926 90.642C70.0521 92.9203 67.6427 94.3415 65.0214 94.3415C62.3905 94.3415 59.974 92.9099 58.7377 90.6187L33.7854 44.379V108.603C33.7854 111.999 30.9951 114.752 27.553 114.752Z" fill="white"/>
<path d="M108.575 79.2417C108.575 75.8916 105.784 73.1758 102.342 73.1758C98.9002 73.1758 96.1099 75.8916 96.1099 79.2417V108.898C96.1099 112.248 98.9002 114.964 102.342 114.964C105.784 114.964 108.575 112.248 108.575 108.898V79.2417Z" fill="#0A4EBD"/>
</g>
<defs>
<clipPath id="clip0_121_232">
<rect width="87.3589" height="100" fill="white" transform="translate(21.3205 15)"/>
</clipPath>
</defs>
</svg>
