<svg width="369" height="88" viewBox="0 0 369 88" fill="none" xmlns="http://www.w3.org/2000/svg">
<path d="M4.5 81.9296C2.01472 81.9296 0 79.9422 0 77.4905V14.2161C0 11.8413 1.95151 9.91614 4.35882 9.91614C5.9822 9.91614 7.4711 10.8061 8.2226 12.2257L31.5 56.1994L54.7774 12.2257C55.5289 10.8061 57.0178 9.91614 58.6412 9.91614C61.0485 9.91614 63 11.8413 63 14.2161V37.9161C63 40.3679 60.9853 42.4161 58.5 42.4161C56.0147 42.4161 54 40.3679 54 37.9161V31.6188L36.0812 64.524C35.1855 66.1688 33.4459 67.1949 31.5532 67.1949C29.6536 67.1949 27.9089 66.1614 27.0162 64.5073L9 31.1256V77.4905C9 79.9422 6.9853 81.9296 4.5 81.9296Z" fill="white"/>
<path d="M63 56.2953C63 53.8768 60.9853 51.9161 58.5 51.9161C56.0147 51.9161 54 53.8768 54 56.2953V77.7048C54 80.1233 56.0147 82.084 58.5 82.084C60.9853 82.084 63 80.1233 63 77.7048V56.2953Z" fill="#0A4EBD"/>
<path d="M85.006 39.378C84.054 39.378 83.326 39.112 82.822 38.58C82.318 38.048 82.066 37.306 82.066 36.354V12.036C82.066 11.084 82.332 10.342 82.864 9.81C83.424 9.278 84.18 9.012 85.132 9.012C85.972 9.012 86.63 9.18 87.106 9.516C87.61 9.824 88.072 10.37 88.492 11.154L98.194 28.878H96.766L106.468 11.154C106.888 10.37 107.336 9.824 107.812 9.516C108.316 9.18 108.974 9.012 109.786 9.012C110.738 9.012 111.466 9.278 111.97 9.81C112.502 10.342 112.768 11.084 112.768 12.036V36.354C112.768 37.306 112.516 38.048 112.012 38.58C111.508 39.112 110.78 39.378 109.828 39.378C108.876 39.378 108.134 39.112 107.602 38.58C107.098 38.048 106.846 37.306 106.846 36.354V19.344H107.77L99.958 33.33C99.622 33.862 99.258 34.268 98.866 34.548C98.502 34.8 98.012 34.926 97.396 34.926C96.78 34.926 96.276 34.786 95.884 34.506C95.492 34.226 95.142 33.834 94.834 33.33L86.938 19.302H87.946V36.354C87.946 37.306 87.694 38.048 87.19 38.58C86.714 39.112 85.986 39.378 85.006 39.378ZM123.099 39.336C122.063 39.336 121.265 39.042 120.705 38.454C120.173 37.838 119.907 36.984 119.907 35.892V21.528C119.907 20.408 120.173 19.554 120.705 18.966C121.265 18.35 122.063 18.042 123.099 18.042C124.107 18.042 124.877 18.35 125.409 18.966C125.969 19.554 126.249 20.408 126.249 21.528V35.892C126.249 36.984 125.983 37.838 125.451 38.454C124.919 39.042 124.135 39.336 123.099 39.336ZM123.099 14.598C121.923 14.598 121.013 14.332 120.369 13.8C119.753 13.24 119.445 12.456 119.445 11.448C119.445 10.412 119.753 9.628 120.369 9.096C121.013 8.536 121.923 8.256 123.099 8.256C124.275 8.256 125.171 8.536 125.787 9.096C126.403 9.628 126.711 10.412 126.711 11.448C126.711 12.456 126.403 13.24 125.787 13.8C125.171 14.332 124.275 14.598 123.099 14.598ZM142.863 39.462C140.623 39.462 138.663 39.028 136.983 38.16C135.331 37.264 134.057 36.004 133.161 34.38C132.265 32.756 131.817 30.838 131.817 28.626C131.817 26.974 132.069 25.49 132.573 24.174C133.077 22.858 133.805 21.738 134.757 20.814C135.737 19.89 136.913 19.19 138.285 18.714C139.657 18.21 141.183 17.958 142.863 17.958C143.731 17.958 144.655 18.07 145.635 18.294C146.615 18.49 147.581 18.84 148.533 19.344C149.093 19.596 149.471 19.96 149.667 20.436C149.891 20.884 149.975 21.36 149.919 21.864C149.863 22.34 149.681 22.774 149.373 23.166C149.093 23.53 148.729 23.782 148.281 23.922C147.833 24.034 147.329 23.95 146.769 23.67C146.237 23.362 145.677 23.138 145.089 22.998C144.529 22.858 143.997 22.788 143.493 22.788C142.653 22.788 141.911 22.928 141.267 23.208C140.623 23.46 140.077 23.838 139.629 24.342C139.209 24.818 138.873 25.42 138.621 26.148C138.397 26.876 138.285 27.716 138.285 28.668C138.285 30.516 138.733 31.972 139.629 33.036C140.553 34.072 141.841 34.59 143.493 34.59C143.997 34.59 144.529 34.534 145.089 34.422C145.649 34.282 146.209 34.058 146.769 33.75C147.329 33.47 147.833 33.4 148.281 33.54C148.729 33.68 149.079 33.946 149.331 34.338C149.611 34.702 149.765 35.136 149.793 35.64C149.849 36.116 149.765 36.592 149.541 37.068C149.345 37.516 148.981 37.866 148.449 38.118C147.497 38.594 146.545 38.93 145.593 39.126C144.641 39.35 143.731 39.462 142.863 39.462ZM157.754 39.378C156.718 39.378 155.92 39.098 155.36 38.538C154.828 37.978 154.562 37.18 154.562 36.144V12.246C154.562 11.182 154.828 10.384 155.36 9.852C155.92 9.292 156.718 9.012 157.754 9.012C158.762 9.012 159.532 9.292 160.064 9.852C160.624 10.384 160.904 11.182 160.904 12.246V22.242H160.316C160.96 20.87 161.912 19.82 163.172 19.092C164.46 18.336 165.916 17.958 167.54 17.958C169.192 17.958 170.55 18.28 171.614 18.924C172.678 19.54 173.476 20.492 174.008 21.78C174.54 23.04 174.806 24.65 174.806 26.61V36.144C174.806 37.18 174.526 37.978 173.966 38.538C173.434 39.098 172.65 39.378 171.614 39.378C170.606 39.378 169.822 39.098 169.262 38.538C168.73 37.978 168.464 37.18 168.464 36.144V26.904C168.464 25.476 168.198 24.454 167.666 23.838C167.162 23.194 166.378 22.872 165.314 22.872C163.97 22.872 162.892 23.292 162.08 24.132C161.296 24.972 160.904 26.092 160.904 27.492V36.144C160.904 38.3 159.854 39.378 157.754 39.378ZM188.192 39.462C186.68 39.462 185.322 39.168 184.118 38.58C182.914 37.992 181.976 37.194 181.304 36.186C180.632 35.178 180.296 34.044 180.296 32.784C180.296 31.272 180.688 30.082 181.472 29.214C182.256 28.318 183.53 27.688 185.294 27.324C187.058 26.932 189.396 26.736 192.308 26.736H194.534V30.012H192.35C190.922 30.012 189.76 30.096 188.864 30.264C187.996 30.404 187.366 30.656 186.974 31.02C186.61 31.384 186.428 31.888 186.428 32.532C186.428 33.316 186.694 33.96 187.226 34.464C187.786 34.968 188.584 35.22 189.62 35.22C190.432 35.22 191.146 35.038 191.762 34.674C192.406 34.282 192.91 33.764 193.274 33.12C193.638 32.448 193.82 31.692 193.82 30.852V26.022C193.82 24.79 193.54 23.922 192.98 23.418C192.42 22.886 191.468 22.62 190.124 22.62C189.368 22.62 188.542 22.718 187.646 22.914C186.778 23.082 185.812 23.376 184.748 23.796C184.132 24.076 183.586 24.146 183.11 24.006C182.634 23.838 182.27 23.558 182.018 23.166C181.766 22.746 181.64 22.298 181.64 21.822C181.64 21.318 181.78 20.842 182.06 20.394C182.34 19.918 182.802 19.568 183.446 19.344C184.762 18.812 185.994 18.448 187.142 18.252C188.318 18.056 189.396 17.958 190.376 17.958C192.532 17.958 194.296 18.28 195.668 18.924C197.068 19.54 198.118 20.506 198.818 21.822C199.518 23.11 199.868 24.776 199.868 26.82V36.144C199.868 37.18 199.616 37.978 199.112 38.538C198.608 39.098 197.88 39.378 196.928 39.378C195.976 39.378 195.234 39.098 194.702 38.538C194.198 37.978 193.946 37.18 193.946 36.144V34.59L194.24 34.842C194.072 35.794 193.708 36.62 193.148 37.32C192.616 37.992 191.93 38.524 191.09 38.916C190.25 39.28 189.284 39.462 188.192 39.462ZM213.713 39.462C211.221 39.462 209.359 38.776 208.127 37.404C206.895 36.004 206.279 33.932 206.279 31.188V12.246C206.279 11.182 206.545 10.384 207.077 9.852C207.637 9.292 208.435 9.012 209.471 9.012C210.479 9.012 211.249 9.292 211.781 9.852C212.341 10.384 212.621 11.182 212.621 12.246V30.936C212.621 32.084 212.859 32.938 213.335 33.498C213.839 34.03 214.497 34.296 215.309 34.296C215.533 34.296 215.743 34.282 215.939 34.254C216.135 34.226 216.345 34.212 216.569 34.212C217.017 34.156 217.325 34.296 217.493 34.632C217.689 34.94 217.787 35.57 217.787 36.522C217.787 37.362 217.619 38.006 217.283 38.454C216.947 38.874 216.429 39.154 215.729 39.294C215.449 39.322 215.127 39.35 214.763 39.378C214.399 39.434 214.049 39.462 213.713 39.462ZM243.35 39.44C242.23 39.44 241.083 39.3467 239.91 39.16C238.763 39 237.656 38.76 236.59 38.44C235.55 38.12 234.616 37.72 233.79 37.24C233.203 36.92 232.79 36.5067 232.55 36C232.31 35.4667 232.216 34.9333 232.27 34.4C232.35 33.8667 232.55 33.4 232.87 33C233.216 32.5733 233.643 32.3067 234.15 32.2C234.683 32.0667 235.27 32.16 235.91 32.48C237.003 33.0933 238.19 33.5467 239.47 33.84C240.776 34.1333 242.07 34.28 243.35 34.28C245.296 34.28 246.683 33.9867 247.51 33.4C248.336 32.7867 248.75 32.0267 248.75 31.12C248.75 30.3467 248.456 29.7333 247.87 29.28C247.283 28.8267 246.256 28.44 244.79 28.12L240.27 27.16C237.71 26.6267 235.803 25.72 234.55 24.44C233.323 23.1333 232.71 21.4267 232.71 19.32C232.71 17.9867 232.99 16.7733 233.55 15.68C234.11 14.5867 234.896 13.64 235.91 12.84C236.923 12.04 238.123 11.4267 239.51 11C240.923 10.5733 242.47 10.36 244.15 10.36C245.643 10.36 247.11 10.5467 248.55 10.92C249.99 11.2667 251.256 11.7867 252.35 12.48C252.883 12.8 253.243 13.2133 253.43 13.72C253.643 14.2 253.71 14.6933 253.63 15.2C253.576 15.68 253.376 16.1067 253.03 16.48C252.71 16.8533 252.296 17.0933 251.79 17.2C251.283 17.3067 250.67 17.1867 249.95 16.84C249.07 16.3867 248.136 16.0533 247.15 15.84C246.163 15.6267 245.15 15.52 244.11 15.52C242.99 15.52 242.03 15.6667 241.23 15.96C240.456 16.2533 239.856 16.6667 239.43 17.2C239.03 17.7333 238.83 18.3467 238.83 19.04C238.83 19.8133 239.11 20.44 239.67 20.92C240.23 21.4 241.203 21.7867 242.59 22.08L247.11 23.04C249.723 23.6 251.67 24.5067 252.95 25.76C254.23 26.9867 254.87 28.6133 254.87 30.64C254.87 31.9733 254.603 33.1867 254.07 34.28C253.536 35.3467 252.763 36.2667 251.75 37.04C250.736 37.8133 249.523 38.4133 248.11 38.84C246.696 39.24 245.11 39.44 243.35 39.44ZM243.67 8.96C242.976 8.96 242.336 8.81333 241.75 8.52C241.19 8.2 240.683 7.72 240.23 7.08L237.67 3.52C237.35 3.09333 237.243 2.68 237.35 2.28C237.483 1.88 237.736 1.56 238.11 1.32C238.483 1.08 238.896 0.986665 239.35 1.04C239.803 1.06666 240.216 1.29333 240.59 1.72L243.67 5.24L246.79 1.72C247.163 1.29333 247.576 1.06666 248.03 1.04C248.483 0.986665 248.883 1.08 249.23 1.32C249.603 1.56 249.843 1.88 249.95 2.28C250.083 2.65333 249.99 3.06667 249.67 3.52L247.15 7.08C246.696 7.72 246.176 8.2 245.59 8.52C245.03 8.81333 244.39 8.96 243.67 8.96ZM263.015 39.36C262.028 39.36 261.268 39.0933 260.735 38.56C260.228 38.0267 259.975 37.2667 259.975 36.28V13.52C259.975 12.5067 260.228 11.7467 260.735 11.24C261.268 10.7067 262.028 10.44 263.015 10.44C263.975 10.44 264.708 10.7067 265.215 11.24C265.748 11.7467 266.015 12.5067 266.015 13.52V27.48H266.095L271.895 21.04C272.481 20.3733 273.015 19.88 273.495 19.56C274.001 19.2133 274.668 19.04 275.495 19.04C276.321 19.04 276.948 19.2533 277.375 19.68C277.828 20.1067 278.055 20.6267 278.055 21.24C278.081 21.8267 277.828 22.4267 277.295 23.04L271.175 29.88V27.6L277.975 35.44C278.481 36.0533 278.695 36.6667 278.615 37.28C278.561 37.8933 278.295 38.4 277.815 38.8C277.335 39.1733 276.721 39.36 275.975 39.36C275.068 39.36 274.335 39.1867 273.775 38.84C273.241 38.4933 272.695 37.96 272.135 37.24L266.095 30.52H266.015V36.28C266.015 38.3333 265.015 39.36 263.015 39.36ZM293.007 39.44C290.9 39.44 289.06 39.0267 287.487 38.2C285.94 37.3733 284.74 36.1867 283.887 34.64C283.034 33.0933 282.607 31.2667 282.607 29.16C282.607 27.5867 282.847 26.1733 283.327 24.92C283.807 23.6667 284.5 22.6 285.407 21.72C286.34 20.8133 287.447 20.1333 288.727 19.68C290.007 19.2 291.434 18.96 293.007 18.96C295.114 18.96 296.94 19.3733 298.487 20.2C300.06 21.0267 301.274 22.2 302.127 23.72C303.007 25.24 303.447 27.0533 303.447 29.16C303.447 30.76 303.194 32.1867 302.687 33.44C302.207 34.6933 301.514 35.7733 300.607 36.68C299.7 37.5867 298.594 38.28 297.287 38.76C296.007 39.2133 294.58 39.44 293.007 39.44ZM293.007 34.92C293.887 34.92 294.647 34.7067 295.287 34.28C295.927 33.8533 296.434 33.2267 296.807 32.4C297.18 31.5467 297.367 30.4667 297.367 29.16C297.367 27.2133 296.967 25.7867 296.167 24.88C295.367 23.9467 294.314 23.48 293.007 23.48C292.154 23.48 291.394 23.68 290.727 24.08C290.087 24.48 289.58 25.1067 289.207 25.96C288.86 26.7867 288.687 27.8533 288.687 29.16C288.687 31.1067 289.087 32.56 289.887 33.52C290.687 34.4533 291.727 34.92 293.007 34.92ZM315.962 39.44C314.308 39.44 312.935 39.1333 311.842 38.52C310.748 37.9067 309.935 36.9867 309.402 35.76C308.895 34.5067 308.642 32.96 308.642 31.12V22.08C308.642 21.0667 308.895 20.3067 309.402 19.8C309.935 19.2933 310.682 19.04 311.642 19.04C312.602 19.04 313.348 19.2933 313.882 19.8C314.415 20.3067 314.682 21.0667 314.682 22.08V31.28C314.682 32.4533 314.922 33.3333 315.402 33.92C315.882 34.48 316.642 34.76 317.682 34.76C318.828 34.76 319.762 34.36 320.482 33.56C321.228 32.7333 321.602 31.6533 321.602 30.32V22.08C321.602 21.0667 321.855 20.3067 322.362 19.8C322.895 19.2933 323.642 19.04 324.602 19.04C325.588 19.04 326.335 19.2933 326.842 19.8C327.375 20.3067 327.642 21.0667 327.642 22.08V36.28C327.642 38.3333 326.668 39.36 324.722 39.36C323.762 39.36 323.028 39.0933 322.522 38.56C322.015 38.0267 321.762 37.2667 321.762 36.28V33.6L322.362 35.16C321.775 36.52 320.935 37.5733 319.842 38.32C318.748 39.0667 317.455 39.44 315.962 39.44ZM340.995 39.44C338.622 39.44 336.849 38.7867 335.675 37.48C334.502 36.1467 333.915 34.1733 333.915 31.56V13.52C333.915 12.5067 334.169 11.7467 334.675 11.24C335.209 10.7067 335.969 10.44 336.955 10.44C337.915 10.44 338.649 10.7067 339.155 11.24C339.689 11.7467 339.955 12.5067 339.955 13.52V31.32C339.955 32.4133 340.182 33.2267 340.635 33.76C341.115 34.2667 341.742 34.52 342.515 34.52C342.729 34.52 342.929 34.5067 343.115 34.48C343.302 34.4533 343.502 34.44 343.715 34.44C344.142 34.3867 344.435 34.52 344.595 34.84C344.782 35.1333 344.875 35.7333 344.875 36.64C344.875 37.44 344.715 38.0533 344.395 38.48C344.075 38.88 343.582 39.1467 342.915 39.28C342.649 39.3067 342.342 39.3333 341.995 39.36C341.649 39.4133 341.315 39.44 340.995 39.44ZM355.476 39.44C354.036 39.44 352.742 39.16 351.596 38.6C350.449 38.04 349.556 37.28 348.916 36.32C348.276 35.36 347.956 34.28 347.956 33.08C347.956 31.64 348.329 30.5067 349.076 29.68C349.822 28.8267 351.036 28.2267 352.716 27.88C354.396 27.5067 356.622 27.32 359.396 27.32H361.516V30.44H359.436C358.076 30.44 356.969 30.52 356.116 30.68C355.289 30.8133 354.689 31.0533 354.316 31.4C353.969 31.7467 353.796 32.2267 353.796 32.84C353.796 33.5867 354.049 34.2 354.556 34.68C355.089 35.16 355.849 35.4 356.836 35.4C357.609 35.4 358.289 35.2267 358.876 34.88C359.489 34.5067 359.969 34.0133 360.316 33.4C360.662 32.76 360.836 32.04 360.836 31.24V26.64C360.836 25.4667 360.569 24.64 360.036 24.16C359.502 23.6533 358.596 23.4 357.316 23.4C356.596 23.4 355.809 23.4933 354.956 23.68C354.129 23.84 353.209 24.12 352.196 24.52C351.609 24.7867 351.089 24.8533 350.636 24.72C350.182 24.56 349.836 24.2933 349.596 23.92C349.356 23.52 349.236 23.0933 349.236 22.64C349.236 22.16 349.369 21.7067 349.636 21.28C349.902 20.8267 350.342 20.4933 350.956 20.28C352.209 19.7733 353.382 19.4267 354.476 19.24C355.596 19.0533 356.622 18.96 357.556 18.96C359.609 18.96 361.289 19.2667 362.596 19.88C363.929 20.4667 364.929 21.3867 365.596 22.64C366.262 23.8667 366.596 25.4533 366.596 27.4V36.28C366.596 37.2667 366.356 38.0267 365.876 38.56C365.396 39.0933 364.702 39.36 363.796 39.36C362.889 39.36 362.182 39.0933 361.676 38.56C361.196 38.0267 360.956 37.2667 360.956 36.28V34.8L361.236 35.04C361.076 35.9467 360.729 36.7333 360.196 37.4C359.689 38.04 359.036 38.5467 358.236 38.92C357.436 39.2667 356.516 39.44 355.476 39.44Z" fill="white"/>
<path d="M92.566 81.462C91.39 81.462 90.186 81.364 88.954 81.168C87.75 81 86.588 80.748 85.468 80.412C84.376 80.076 83.396 79.656 82.528 79.152C81.912 78.816 81.478 78.382 81.226 77.85C80.974 77.29 80.876 76.73 80.932 76.17C81.016 75.61 81.226 75.12 81.562 74.7C81.926 74.252 82.374 73.972 82.906 73.86C83.466 73.72 84.082 73.818 84.754 74.154C85.902 74.798 87.148 75.274 88.492 75.582C89.864 75.89 91.222 76.044 92.566 76.044C94.61 76.044 96.066 75.736 96.934 75.12C97.802 74.476 98.236 73.678 98.236 72.726C98.236 71.914 97.928 71.27 97.312 70.794C96.696 70.318 95.618 69.912 94.078 69.576L89.332 68.568C86.644 68.008 84.642 67.056 83.326 65.712C82.038 64.34 81.394 62.548 81.394 60.336C81.394 58.936 81.688 57.662 82.276 56.514C82.864 55.366 83.69 54.372 84.754 53.532C85.818 52.692 87.078 52.048 88.534 51.6C90.018 51.152 91.642 50.928 93.406 50.928C94.974 50.928 96.514 51.124 98.026 51.516C99.538 51.88 100.868 52.426 102.016 53.154C102.576 53.49 102.954 53.924 103.15 54.456C103.374 54.96 103.444 55.478 103.36 56.01C103.304 56.514 103.094 56.962 102.73 57.354C102.394 57.746 101.96 57.998 101.428 58.11C100.896 58.222 100.252 58.096 99.496 57.732C98.572 57.256 97.592 56.906 96.556 56.682C95.52 56.458 94.456 56.346 93.364 56.346C92.188 56.346 91.18 56.5 90.34 56.808C89.528 57.116 88.898 57.55 88.45 58.11C88.03 58.67 87.82 59.314 87.82 60.042C87.82 60.854 88.114 61.512 88.702 62.016C89.29 62.52 90.312 62.926 91.768 63.234L96.514 64.242C99.258 64.83 101.302 65.782 102.646 67.098C103.99 68.386 104.662 70.094 104.662 72.222C104.662 73.622 104.382 74.896 103.822 76.044C103.262 77.164 102.45 78.13 101.386 78.942C100.322 79.754 99.048 80.384 97.564 80.832C96.08 81.252 94.414 81.462 92.566 81.462ZM119.934 81.462C117.722 81.462 115.79 81.028 114.138 80.16C112.514 79.292 111.254 78.046 110.358 76.422C109.462 74.798 109.014 72.88 109.014 70.668C109.014 69.016 109.266 67.532 109.77 66.216C110.274 64.9 111.002 63.78 111.954 62.856C112.934 61.904 114.096 61.19 115.44 60.714C116.784 60.21 118.282 59.958 119.934 59.958C122.146 59.958 124.064 60.392 125.688 61.26C127.34 62.128 128.614 63.36 129.51 64.956C130.434 66.552 130.896 68.456 130.896 70.668C130.896 72.348 130.63 73.846 130.098 75.162C129.594 76.478 128.866 77.612 127.914 78.564C126.962 79.516 125.8 80.244 124.428 80.748C123.084 81.224 121.586 81.462 119.934 81.462ZM119.934 76.716C120.858 76.716 121.656 76.492 122.328 76.044C123 75.596 123.532 74.938 123.924 74.07C124.316 73.174 124.512 72.04 124.512 70.668C124.512 68.624 124.092 67.126 123.252 66.174C122.412 65.194 121.306 64.704 119.934 64.704C119.038 64.704 118.24 64.914 117.54 65.334C116.868 65.754 116.336 66.412 115.944 67.308C115.58 68.176 115.398 69.296 115.398 70.668C115.398 72.712 115.818 74.238 116.658 75.246C117.498 76.226 118.59 76.716 119.934 76.716ZM143.869 81.462C141.377 81.462 139.515 80.776 138.283 79.404C137.051 78.004 136.435 75.932 136.435 73.188V54.246C136.435 53.182 136.701 52.384 137.233 51.852C137.793 51.292 138.591 51.012 139.627 51.012C140.635 51.012 141.405 51.292 141.937 51.852C142.497 52.384 142.777 53.182 142.777 54.246V72.936C142.777 74.084 143.015 74.938 143.491 75.498C143.995 76.03 144.653 76.296 145.465 76.296C145.689 76.296 145.899 76.282 146.095 76.254C146.291 76.226 146.501 76.212 146.725 76.212C147.173 76.156 147.481 76.296 147.649 76.632C147.845 76.94 147.943 77.57 147.943 78.522C147.943 79.362 147.775 80.006 147.439 80.454C147.103 80.874 146.585 81.154 145.885 81.294C145.605 81.322 145.283 81.35 144.919 81.378C144.555 81.434 144.205 81.462 143.869 81.462ZM159.703 81.462C157.967 81.462 156.525 81.14 155.377 80.496C154.229 79.852 153.375 78.886 152.815 77.598C152.283 76.282 152.017 74.658 152.017 72.726V63.234C152.017 62.17 152.283 61.372 152.815 60.84C153.375 60.308 154.159 60.042 155.167 60.042C156.175 60.042 156.959 60.308 157.519 60.84C158.079 61.372 158.359 62.17 158.359 63.234V72.894C158.359 74.126 158.611 75.05 159.115 75.666C159.619 76.254 160.417 76.548 161.509 76.548C162.713 76.548 163.693 76.128 164.449 75.288C165.233 74.42 165.625 73.286 165.625 71.886V63.234C165.625 62.17 165.891 61.372 166.423 60.84C166.983 60.308 167.767 60.042 168.775 60.042C169.811 60.042 170.595 60.308 171.127 60.84C171.687 61.372 171.967 62.17 171.967 63.234V78.144C171.967 80.3 170.945 81.378 168.901 81.378C167.893 81.378 167.123 81.098 166.591 80.538C166.059 79.978 165.793 79.18 165.793 78.144V75.33L166.423 76.968C165.807 78.396 164.925 79.502 163.777 80.286C162.629 81.07 161.271 81.462 159.703 81.462ZM188.676 81.462C186.744 81.462 185.12 81.14 183.804 80.496C182.516 79.852 181.55 78.914 180.906 77.682C180.29 76.45 179.982 74.896 179.982 73.02V65.124H178.218C177.434 65.124 176.818 64.914 176.37 64.494C175.95 64.074 175.74 63.5 175.74 62.772C175.74 61.988 175.95 61.4 176.37 61.008C176.818 60.588 177.434 60.378 178.218 60.378H179.982V57.186C179.982 56.122 180.262 55.324 180.822 54.792C181.382 54.232 182.166 53.952 183.174 53.952C184.21 53.952 184.994 54.232 185.526 54.792C186.058 55.324 186.324 56.122 186.324 57.186V60.378H190.314C191.098 60.378 191.7 60.588 192.12 61.008C192.54 61.4 192.75 61.988 192.75 62.772C192.75 63.5 192.54 64.074 192.12 64.494C191.7 64.914 191.098 65.124 190.314 65.124H186.324V72.768C186.324 73.944 186.59 74.826 187.122 75.414C187.682 76.002 188.564 76.296 189.768 76.296C190.188 76.296 190.58 76.254 190.944 76.17C191.308 76.086 191.644 76.03 191.952 76.002C192.344 75.974 192.666 76.1 192.918 76.38C193.17 76.632 193.296 77.206 193.296 78.102C193.296 78.774 193.184 79.362 192.96 79.866C192.736 80.37 192.344 80.734 191.784 80.958C191.42 81.098 190.916 81.21 190.272 81.294C189.656 81.406 189.124 81.462 188.676 81.462ZM201.063 81.336C200.027 81.336 199.229 81.042 198.669 80.454C198.137 79.838 197.871 78.984 197.871 77.892V63.528C197.871 62.408 198.137 61.554 198.669 60.966C199.229 60.35 200.027 60.042 201.063 60.042C202.071 60.042 202.841 60.35 203.373 60.966C203.933 61.554 204.213 62.408 204.213 63.528V77.892C204.213 78.984 203.947 79.838 203.415 80.454C202.883 81.042 202.099 81.336 201.063 81.336ZM201.063 56.598C199.887 56.598 198.977 56.332 198.333 55.8C197.717 55.24 197.409 54.456 197.409 53.448C197.409 52.412 197.717 51.628 198.333 51.096C198.977 50.536 199.887 50.256 201.063 50.256C202.239 50.256 203.135 50.536 203.751 51.096C204.367 51.628 204.675 52.412 204.675 53.448C204.675 54.456 204.367 55.24 203.751 55.8C203.135 56.332 202.239 56.598 201.063 56.598ZM220.701 81.462C218.489 81.462 216.557 81.028 214.905 80.16C213.281 79.292 212.021 78.046 211.125 76.422C210.229 74.798 209.781 72.88 209.781 70.668C209.781 69.016 210.033 67.532 210.537 66.216C211.041 64.9 211.769 63.78 212.721 62.856C213.701 61.904 214.863 61.19 216.207 60.714C217.551 60.21 219.049 59.958 220.701 59.958C222.913 59.958 224.831 60.392 226.455 61.26C228.107 62.128 229.381 63.36 230.277 64.956C231.201 66.552 231.663 68.456 231.663 70.668C231.663 72.348 231.397 73.846 230.865 75.162C230.361 76.478 229.633 77.612 228.681 78.564C227.729 79.516 226.567 80.244 225.195 80.748C223.851 81.224 222.353 81.462 220.701 81.462ZM220.701 76.716C221.625 76.716 222.423 76.492 223.095 76.044C223.767 75.596 224.299 74.938 224.691 74.07C225.083 73.174 225.279 72.04 225.279 70.668C225.279 68.624 224.859 67.126 224.019 66.174C223.179 65.194 222.073 64.704 220.701 64.704C219.805 64.704 219.007 64.914 218.307 65.334C217.635 65.754 217.103 66.412 216.711 67.308C216.347 68.176 216.165 69.296 216.165 70.668C216.165 72.712 216.585 74.238 217.425 75.246C218.265 76.226 219.357 76.716 220.701 76.716ZM240.394 81.378C239.358 81.378 238.56 81.098 238 80.538C237.468 79.978 237.202 79.18 237.202 78.144V63.234C237.202 62.198 237.468 61.414 238 60.882C238.56 60.322 239.33 60.042 240.31 60.042C241.318 60.042 242.088 60.322 242.62 60.882C243.152 61.414 243.418 62.198 243.418 63.234V65.628L242.956 64.242C243.6 62.87 244.552 61.82 245.812 61.092C247.1 60.336 248.556 59.958 250.18 59.958C251.832 59.958 253.19 60.28 254.254 60.924C255.318 61.54 256.116 62.492 256.648 63.78C257.18 65.04 257.446 66.65 257.446 68.61V78.144C257.446 79.18 257.166 79.978 256.606 80.538C256.074 81.098 255.29 81.378 254.254 81.378C253.246 81.378 252.462 81.098 251.902 80.538C251.37 79.978 251.104 79.18 251.104 78.144V68.904C251.104 67.476 250.838 66.454 250.306 65.838C249.802 65.194 249.018 64.872 247.954 64.872C246.61 64.872 245.532 65.292 244.72 66.132C243.936 66.972 243.544 68.092 243.544 69.492V78.144C243.544 80.3 242.494 81.378 240.394 81.378ZM271.756 81.462C270.524 81.462 269.25 81.35 267.934 81.126C266.646 80.902 265.47 80.524 264.406 79.992C263.846 79.712 263.44 79.362 263.188 78.942C262.964 78.494 262.866 78.046 262.894 77.598C262.922 77.15 263.062 76.744 263.314 76.38C263.594 76.016 263.944 75.778 264.364 75.666C264.812 75.526 265.302 75.568 265.834 75.792C266.982 76.268 268.032 76.604 268.984 76.8C269.936 76.996 270.874 77.094 271.798 77.094C273.002 77.094 273.87 76.912 274.402 76.548C274.962 76.156 275.242 75.652 275.242 75.036C275.242 74.476 275.06 74.056 274.696 73.776C274.332 73.496 273.8 73.3 273.1 73.188L268.69 72.39C266.954 72.082 265.61 71.452 264.658 70.5C263.734 69.52 263.272 68.274 263.272 66.762C263.272 65.362 263.664 64.158 264.448 63.15C265.232 62.114 266.31 61.33 267.682 60.798C269.082 60.238 270.664 59.958 272.428 59.958C273.688 59.958 274.85 60.07 275.914 60.294C276.978 60.518 278 60.882 278.98 61.386C279.484 61.638 279.834 61.974 280.03 62.394C280.254 62.814 280.324 63.248 280.24 63.696C280.184 64.144 280.016 64.55 279.736 64.914C279.456 65.278 279.092 65.516 278.644 65.628C278.224 65.74 277.734 65.684 277.174 65.46C276.278 65.04 275.452 64.746 274.696 64.578C273.94 64.382 273.212 64.284 272.512 64.284C271.252 64.284 270.342 64.494 269.782 64.914C269.222 65.306 268.942 65.81 268.942 66.426C268.942 66.902 269.096 67.308 269.404 67.644C269.74 67.952 270.244 68.162 270.916 68.274L275.326 69.072C277.146 69.38 278.532 69.996 279.484 70.92C280.436 71.816 280.912 73.048 280.912 74.616C280.912 76.744 280.072 78.424 278.392 79.656C276.74 80.86 274.528 81.462 271.756 81.462Z" fill="#0A4EBD"/>
</svg>
